Coordinates
version=1
nRows=17
nColumns=24
inDegrees=yes

Units are S.I. units (second, meters, Newtons, ...)
Angles are in degrees.

endheader
time	pelvis_tilt	pelvis_list	pelvis_rotation	pelvis_tx	pelvis_ty	pelvis_tz	hip_flexion_r	hip_adduction_r	hip_rotation_r	knee_angle_r	ankle_angle_r	subtalar_angle_r	mtp_angle_r	hip_flexion_l	hip_adduction_l	hip_rotation_l	knee_angle_l	ankle_angle_l	subtalar_angle_l	mtp_angle_l	lumbar_extension	lumbar_bending	lumbar_rotation
      2.48000000	     -5.90768993	      2.06987685	    361.88796122	      0.11138567	      1.38993615	     -1.01331961	     15.29651532	      0.96913806	      0.04207567	    -14.96394016	      0.43333928	     -3.91669931	      4.04028070	     20.39077874	      4.06655566	      4.66916529	    -54.77734756	     -0.16318247	     11.93687497	     41.65121297	     -7.33405921	      4.55372803	     12.62864571
      2.48500000	     -6.01015805	      2.21161237	    361.84271360	      0.11589424	      1.39038130	     -1.01283352	     15.06623512	      0.86384209	      0.11164472	    -14.86316823	      0.63065640	     -3.88320962	      4.06170544	     20.99146915	      4.17613018	      4.50886236	    -54.40087451	      0.14044140	     11.75140816	     41.25930121	     -7.26362318	      4.36982303	     12.70809190
      2.49000000	     -6.08444636	      2.35925073	    361.79944842	      0.12039482	      1.39083877	     -1.01236411	     14.80252519	      0.75033681	      0.17382530	    -14.75625684	      0.83332338	     -3.84195743	      4.08281005	     21.53990758	      4.29200270	      4.35148627	    -53.95490856	      0.41692371	     11.52919168	     40.88603740	     -7.22496259	      4.18296901	     12.78394154
      2.49500000	     -6.17173983	      2.49624132	    361.76717557	      0.12487903	      1.39124602	     -1.01193351	     14.55708242	      0.64263902	      0.22107696	    -14.65640966	      1.04228417	     -3.79961523	      4.10082461	     22.09390727	      4.40145918	      4.20664913	    -53.46528322	      0.67480369	     11.29339401	     40.50640169	     -7.17348741	      4.01078880	     12.85451387
      2.50000000	     -6.26034389	      2.62827920	    361.73882467	      0.12935788	      1.39162039	     -1.01150952	     14.31346660	      0.53899961	      0.26724935	    -14.55618219	      1.24775252	     -3.76482895	      4.11542682	     22.63381489	      4.50485763	      4.06582668	    -52.92146592	      0.90581021	     11.03489960	     40.15217123	     -7.12072052	      3.83994662	     12.91628721
      2.50500000	     -6.33296755	      2.77837406	    361.70763687	      0.13383086	      1.39199837	     -1.01106112	     14.05293553	      0.41962475	      0.32772509	    -14.45602397	      1.45522858	     -3.76005210	      4.14043451	     23.13092048	      4.61897937	      3.91317366	    -52.30172476	      1.08470614	     10.76651198	     39.90824764	     -7.09631577	      3.65688310	     12.91963066
      2.51000000	     -6.41108323	      2.88752586	    361.69989822	      0.13831027	      1.39233346	     -1.01073994	     13.79291165	      0.32656835	      0.33116240	    -14.34637065	      1.65894313	     -3.66861586	      4.14462597	     23.62460082	      4.71483018	      3.80904227	    -51.65467360	      1.28142008	     10.44862062	     39.49198905	     -7.04619501	      3.51356944	     13.01742055
      2.51500000	     -6.49415202	      3.01915164	    361.68580294	      0.14277413	      1.39262799	     -1.01033509	     13.54464941	      0.22033814	      0.37139520	    -14.24742398	      1.86894958	     -3.67566631	      4.16120413	     24.10327147	      4.81490952	      3.67756683	    -50.94050933	      1.41584218	     10.18437970	     39.24103177	     -7.01243799	      3.34682216	     13.00320741
      2.52000000	     -6.58086571	      3.12494080	    361.68023144	      0.14724424	      1.39290229	     -1.01002592	     13.29797430	      0.13122940	      0.40012306	    -14.14386834	      2.07221877	     -3.61387969	      4.17126308	     24.56558638	      4.90857488	      3.58944016	    -50.17752344	      1.53126213	      9.84519207	     38.88364946	     -6.95942487	      3.21348246	     13.05257107
      2.52500000	     -6.64315409	      3.23515267	    361.67570872	      0.15170113	      1.39316210	     -1.00970839	     13.02587272	      0.03855385	      0.41221940	    -14.04057442	      2.27853060	     -3.56839778	      4.17692148	     24.97898591	      5.00092456	      3.49426530	    -49.35683944	      1.63414901	      9.54739803	     38.55092159	     -6.94363863	      3.07737276	     13.07094208
      2.53000000	     -6.71179341	      3.33930715	    361.67380186	      0.15615142	      1.39337872	     -1.00937802	     12.76726529	     -0.04640108	      0.41371797	    -13.94862580	      2.47562760	     -3.55543038	      4.18456148	     25.38018363	      5.08331958	      3.40099731	    -48.48537676	      1.71580002	      9.26676697	     38.26073140	     -6.92420114	      2.94063965	     13.07137838
      2.53500000	     -6.77701604	      3.43070243	    361.66867935	      0.16060415	      1.39357846	     -1.00911414	     12.49729564	     -0.12255158	      0.44020110	    -13.83909276	      2.67088919	     -3.50118821	      4.18993722	     25.75490907	      5.16433142	      3.33582201	    -47.56254453	      1.76275023	      8.94971071	     37.91462160	     -6.90914966	      2.83356928	     13.09636260
      2.54000000	     -6.84706376	      3.52306848	    361.66269758	      0.16504159	      1.39372803	     -1.00881475	     12.24523495	     -0.19610204	      0.44132296	    -13.75085894	      2.86262583	     -3.49781388	      4.19900919	     26.11405271	      5.23543771	      3.25629822	    -46.58615545	      1.79380910	      8.68795116	     37.63444686	     -6.89216934	      2.71486674	     13.09592749
      2.54500000	     -6.89258247	      3.59951423	    361.65237731	      0.16948128	      1.39387644	     -1.00856108	     11.95940324	     -0.25462009	      0.47458408	    -13.64781011	      3.04889775	     -3.44994331	      4.20776761	     26.41994546	      5.30132530	      3.21349784	    -45.55542212	      1.79722684	      8.38133447	     37.30050673	     -6.90002372	      2.61910237	     13.12701779
      2.55000000	     -6.94203282	      3.68716779	    361.63320367	      0.17391205	      1.39398665	     -1.00825998	     11.68881233	     -0.32000682	      0.48951337	    -13.56218123	      3.23706451	     -3.44918400	      4.22130612	     26.70453728	      5.36295166	      3.14394200	    -44.46440926	      1.77194612	      8.12834223	     37.03050986	     -6.91125975	      2.50667676	     13.13063597
      2.55500000	     -6.98134278	      3.75733973	    361.60766751	      0.17832722	      1.39407580	     -1.00801549	     11.40514955	     -0.36995660	      0.53522888	    -13.46724502	      3.41112565	     -3.40961971	      4.23522928	     26.95395600	      5.41825811	      3.11348618	    -43.32238571	      1.73023644	      7.83806061	     36.73370595	     -6.93545109	      2.42434475	     13.17227962
      2.56000000	     -7.03979218	      3.83073406	    361.57247800	      0.18275503	      1.39411753	     -1.00773426	     11.15034117	     -0.41876615	      0.58067571	    -13.38730513	      3.58776534	     -3.40251022	      4.25146660	     27.19710239	      5.46478205	      3.06869771	    -42.12141449	      1.65564548	      7.58712687	     36.48351502	     -6.93811216	      2.33238820	     13.20080004
